<svg xmlns="http://www.w3.org/2000/svg" xmlns:xlink="http://www.w3.org/1999/xlink" width="153.044" height="59.045" viewBox="0 0 153.044 59.045">
  <defs>
    <filter id="_Контур_" x="17.715" y="21.844" width="24.061" height="24.669" filterUnits="userSpaceOnUse">
      <feOffset dy="3" input="SourceAlpha"/>
      <feGaussianBlur stdDeviation="3" result="blur"/>
      <feFlood flood-opacity="0.161"/>
      <feComposite operator="in" in2="blur"/>
      <feComposite in="SourceGraphic"/>
    </filter>
    <filter id="_Контур_2" x="14.27" y="21.844" width="24.817" height="25.668" filterUnits="userSpaceOnUse">
      <feOffset dy="3" input="SourceAlpha"/>
      <feGaussianBlur stdDeviation="3" result="blur-2"/>
      <feFlood flood-opacity="0.161"/>
      <feComposite operator="in" in2="blur-2"/>
      <feComposite in="SourceGraphic"/>
    </filter>
    <filter id="_Контур_3" x="10.825" y="21.844" width="25.206" height="26.182" filterUnits="userSpaceOnUse">
      <feOffset dy="3" input="SourceAlpha"/>
      <feGaussianBlur stdDeviation="3" result="blur-3"/>
      <feFlood flood-opacity="0.161"/>
      <feComposite operator="in" in2="blur-3"/>
      <feComposite in="SourceGraphic"/>
    </filter>
    <filter id="_Контур_4" x="5.744" y="6.438" width="38.989" height="32.174" filterUnits="userSpaceOnUse">
      <feOffset dy="3" input="SourceAlpha"/>
      <feGaussianBlur stdDeviation="3" result="blur-4"/>
      <feFlood flood-opacity="0.161"/>
      <feComposite operator="in" in2="blur-4"/>
      <feComposite in="SourceGraphic"/>
    </filter>
    <filter id="_Контур_5" x="21.16" y="21.842" width="22.995" height="23.258" filterUnits="userSpaceOnUse">
      <feOffset dy="3" input="SourceAlpha"/>
      <feGaussianBlur stdDeviation="3" result="blur-5"/>
      <feFlood flood-opacity="0.161"/>
      <feComposite operator="in" in2="blur-5"/>
      <feComposite in="SourceGraphic"/>
    </filter>
    <filter id="_Составной_контур_" x="0" y="0" width="53.224" height="53.223" filterUnits="userSpaceOnUse">
      <feOffset dy="3" input="SourceAlpha"/>
      <feGaussianBlur stdDeviation="3" result="blur-6"/>
      <feFlood flood-opacity="0.161"/>
      <feComposite operator="in" in2="blur-6"/>
      <feComposite in="SourceGraphic"/>
    </filter>
    <filter id="_Контур_6" x="24.478" y="21.137" width="21.782" height="22.17" filterUnits="userSpaceOnUse">
      <feOffset dy="3" input="SourceAlpha"/>
      <feGaussianBlur stdDeviation="3" result="blur-7"/>
      <feFlood flood-opacity="0.161"/>
      <feComposite operator="in" in2="blur-7"/>
      <feComposite in="SourceGraphic"/>
    </filter>
    <filter id="AirApp" x="41.044" y="6.045" width="112" height="53" filterUnits="userSpaceOnUse">
      <feOffset dy="3" input="SourceAlpha"/>
      <feGaussianBlur stdDeviation="3" result="blur-8"/>
      <feFlood flood-opacity="0.161"/>
      <feComposite operator="in" in2="blur-8"/>
      <feComposite in="SourceGraphic"/>
    </filter>
  </defs>
  <g id="logo" transform="translate(-618.956 -295.955)">
    <g id="Слой_2" data-name="Слой 2" transform="translate(627.955 301.955)">
      <g id="Layer_2" data-name="Layer 2">
        <g id="_Группа_" data-name="&lt;Группа&gt;">
          <g transform="matrix(1, 0, 0, 1, -9, -6)" filter="url(#_Контур_)">
            <path id="_Контур_7" data-name="&lt;Контур&gt;" d="M202.392,247.44H200.67l4.824,6.4a.681.681,0,0,0,.838.2l.013-.006a.681.681,0,0,0,.249-1.025Z" transform="translate(-173.96 -219.6)" fill="#fff"/>
          </g>
          <g transform="matrix(1, 0, 0, 1, -9, -6)" filter="url(#_Контур_2)">
            <path id="_Контур_8" data-name="&lt;Контур&gt;" d="M163.363,247.44H161.64l5.578,7.4a.683.683,0,0,0,.726.247h.014a.681.681,0,0,0,.361-1.066Z" transform="translate(-138.37 -219.6)" fill="#fff"/>
          </g>
          <g transform="matrix(1, 0, 0, 1, -9, -6)" filter="url(#_Контур_3)">
            <path id="_Контур_9" data-name="&lt;Контур&gt;" d="M124.342,247.44H122.62l5.965,7.911a.686.686,0,0,0,.6.269h.016a.681.681,0,0,0,.493-1.089Z" transform="translate(-102.8 -219.6)" fill="#fff"/>
          </g>
          <g transform="matrix(1, 0, 0, 1, -9, -6)" filter="url(#_Контур_4)">
            <path id="_Контур_10" data-name="&lt;Контур&gt;" d="M80.64,87.1h.541a8.959,8.959,0,0,0,1.435-.15,4.6,4.6,0,0,0,.177-8.849h0l-.018-.005c0-.064.005-.13.005-.194a4.975,4.975,0,0,0-9.951,0,2.72,2.72,0,0,0,.01.282l.005.088a2.274,2.274,0,0,0-.223-.122,2.415,2.415,0,0,0-3.372,2.861c-.066-.024-.134-.043-.2-.063a3.122,3.122,0,0,0-.852-.119h-.121a3.045,3.045,0,0,0-.433.047h-.011a3.135,3.135,0,0,0,.564,6.218H80.642Z" transform="translate(-50.32 -60.49)" fill="#fff"/>
          </g>
          <g transform="matrix(1, 0, 0, 1, -9, -6)" filter="url(#_Контур_5)">
            <path id="_Контур_11" data-name="&lt;Контур&gt;" d="M241.411,247.42H239.69l3.761,4.986a.679.679,0,0,0,.935.147l.011-.008a.682.682,0,0,0,.153-.967Z" transform="translate(-209.53 -219.58)" fill="#fff"/>
          </g>
          <g transform="matrix(1, 0, 0, 1, -9, -6)" filter="url(#_Составной_контур_)">
            <path id="_Составной_контур_2" data-name="&lt;Составной контур&gt;" d="M17.613,0A17.612,17.612,0,1,0,35.223,17.613,17.612,17.612,0,0,0,17.613,0Zm0,32.9A15.29,15.29,0,1,1,32.9,17.613,15.29,15.29,0,0,1,17.613,32.9Z" transform="translate(9 6)" fill="#fff"/>
          </g>
          <g transform="matrix(1, 0, 0, 1, -9, -6)" filter="url(#_Контур_6)">
            <path id="_Контур_12" data-name="&lt;Контур&gt;" d="M278.625,239.43a5.407,5.407,0,0,1-1.3.53.235.235,0,0,0-.049.008l2.535,3.362a.682.682,0,0,0,1.034.064l.021-.022a.68.68,0,0,0,.054-.883Z" transform="translate(-243.8 -212.29)" fill="#fff"/>
          </g>
        </g>
      </g>
    </g>
    <g transform="matrix(1, 0, 0, 1, 618.96, 295.96)" filter="url(#AirApp)">
      <text id="AirApp-2" data-name="AirApp" transform="translate(50.04 12.04)" fill="#fff" font-size="30" font-family="Manjari-Bold, Manjari" font-weight="700"><tspan x="0" y="22">AirApp</tspan></text>
    </g>
  </g>
</svg>
